<?xml version="1.0" standalone="no"?>
<!DOCTYPE svg PUBLIC "-//W3C//DTD SVG 20010904//EN"
 "http://www.w3.org/TR/2001/REC-SVG-20010904/DTD/svg10.dtd">
<svg version="1.0" xmlns="http://www.w3.org/2000/svg"
 width="928.000000pt" height="928.000000pt" viewBox="0 0 928.000000 928.000000"
 preserveAspectRatio="xMidYMid meet">
<metadata>
Created by potrace 1.11, written by Peter Selinger 2001-2013
</metadata>
<g transform="translate(0.000000,928.000000) scale(0.100000,-0.100000)"
fill="#000000" stroke="none">
<path d="M6948 9205 c-2 -3 -76 -7 -164 -10 -168 -6 -175 -7 -284 -25 -91 -15
-89 -15 -136 -28 -78 -22 -183 -71 -253 -116 -80 -51 -195 -163 -261 -251 -25
-33 -47 -62 -51 -65 -29 -26 -134 -216 -198 -360 -18 -41 -41 -93 -51 -115
-43 -95 -181 -434 -186 -455 0 -3 -5 -16 -11 -30 -6 -14 -19 -45 -28 -70 -9
-25 -21 -54 -26 -65 -4 -11 -22 -58 -39 -105 -17 -47 -35 -94 -40 -105 -21
-48 -200 -531 -204 -550 -1 -5 -5 -16 -9 -22 -5 -7 -10 -23 -12 -35 -8 -42
-21 -37 -39 14 -10 29 -25 67 -32 83 -7 17 -52 140 -99 275 -47 135 -93 261
-101 280 -8 20 -16 42 -18 50 -3 15 -11 39 -26 75 -12 29 -23 59 -24 65 -1 3
-6 19 -13 35 -6 17 -25 68 -43 115 -17 47 -35 94 -40 105 -5 11 -21 52 -36 90
-14 39 -37 93 -49 120 -12 28 -28 67 -36 88 -7 20 -17 37 -21 37 -4 0 -8 7 -8
16 0 25 -114 238 -166 311 -66 93 -210 233 -364 357 -39 31 -110 76 -119 76
-6 0 -11 4 -11 9 0 12 -191 105 -270 131 -159 52 -269 68 -450 64 -135 -3
-235 -9 -235 -14 0 -2 -35 -9 -72 -14 -18 -2 -36 -7 -40 -9 -4 -3 -26 -8 -48
-11 -36 -6 -156 -38 -195 -53 -16 -6 -31 -11 -52 -16 -7 -2 -24 -9 -38 -17
-14 -7 -27 -13 -30 -13 -28 2 -228 -98 -303 -150 -85 -59 -117 -87 -242 -212
-92 -93 -282 -315 -348 -405 -9 -14 -38 -54 -64 -90 -67 -92 -173 -258 -173
-269 0 -5 -4 -11 -9 -13 -15 -6 -161 -285 -161 -309 0 -5 -4 -9 -10 -9 -5 0
-10 -8 -10 -18 0 -10 -3 -22 -8 -26 -4 -4 -7 -11 -7 -14 -1 -4 -9 -22 -18 -39
-10 -18 -18 -36 -18 -40 -1 -5 -6 -19 -11 -33 -27 -68 -72 -191 -89 -245 -10
-33 -24 -74 -29 -92 -6 -18 -13 -40 -15 -50 -3 -10 -11 -45 -20 -78 -20 -79
-25 -105 -30 -135 -2 -14 -6 -36 -10 -50 -25 -100 -25 -433 -1 -555 2 -12 7
-50 10 -86 4 -36 8 -76 11 -90 2 -13 6 -42 10 -64 7 -50 14 -92 20 -127 3 -16
7 -40 10 -55 3 -16 8 -44 11 -63 4 -19 8 -46 10 -60 2 -14 6 -36 10 -50 3 -14
8 -34 10 -45 4 -23 10 -51 25 -120 6 -27 13 -59 15 -70 9 -46 36 -157 58 -240
9 -33 18 -67 20 -75 2 -8 14 -46 26 -85 24 -79 27 -87 29 -97 3 -16 93 -274
102 -293 5 -11 24 -63 43 -115 38 -106 167 -431 199 -500 11 -25 20 -51 20
-57 0 -7 3 -13 7 -13 3 0 12 -17 19 -37 35 -97 290 -614 312 -633 3 -3 30 -43
59 -90 48 -76 94 -147 134 -205 8 -11 42 -57 75 -103 34 -45 61 -87 61 -92 0
-6 4 -10 9 -10 5 0 19 -16 32 -36 12 -20 35 -50 50 -67 16 -17 29 -35 29 -39
0 -3 6 -13 13 -20 7 -7 28 -33 47 -58 19 -25 39 -50 45 -57 5 -6 20 -24 32
-40 12 -15 31 -39 42 -53 11 -14 24 -29 28 -35 29 -37 149 -183 162 -196 9 -9
32 -36 51 -60 35 -43 70 -84 179 -208 280 -318 712 -755 1066 -1076 48 -44
100 -91 115 -105 32 -30 116 -103 220 -192 41 -35 122 -102 180 -147 58 -46
114 -90 126 -99 23 -19 27 -22 129 -84 39 -23 72 -45 75 -48 3 -3 12 -7 20 -9
8 -1 33 -9 55 -15 41 -13 138 -14 188 -2 84 20 275 133 418 248 130 105 164
135 278 248 135 133 177 180 285 310 43 52 87 105 97 118 10 12 19 24 19 27 0
2 10 15 23 28 25 27 22 23 142 182 49 66 98 129 107 139 10 11 18 25 18 32 0
7 4 14 9 16 7 2 87 109 141 188 8 12 21 29 28 38 7 9 44 62 82 117 38 55 73
105 77 110 5 6 20 28 33 50 13 22 27 42 30 45 13 11 224 340 249 388 8 15 17
29 20 32 7 6 17 22 70 115 22 39 54 93 69 120 16 28 42 73 57 100 15 28 32 55
36 61 5 6 6 14 2 17 -3 4 -2 7 3 7 6 0 25 30 44 67 19 38 42 80 53 96 10 15
15 27 10 27 -4 0 -3 4 2 8 11 8 57 94 169 317 39 77 74 142 79 143 4 2 7 8 7
14 0 5 38 88 85 184 47 97 85 182 85 189 0 8 5 17 10 20 10 6 40 68 44 90 1 6
4 15 8 20 16 26 98 219 98 231 0 8 5 14 10 14 6 0 10 8 10 18 0 9 6 28 13 42
7 14 26 61 42 105 16 44 32 85 36 90 8 12 179 522 209 625 12 41 28 93 36 115
13 38 33 111 34 127 1 4 7 23 15 42 8 18 12 36 9 39 -3 3 -2 12 2 19 5 7 9 18
10 23 1 6 17 66 34 135 18 69 34 134 36 145 10 50 13 63 23 100 5 22 13 56 16
75 3 19 7 46 10 60 3 14 7 39 10 55 3 17 7 41 9 55 7 35 24 172 24 190 0 8 3
42 6 75 24 267 24 656 1 1060 -2 33 -4 60 -5 60 -1 0 -3 20 -5 45 -3 46 -24
218 -31 255 -2 11 -6 34 -9 50 -3 17 -10 53 -15 80 -6 28 -12 59 -14 71 -8 40
-58 229 -66 249 -4 11 -14 40 -21 65 -7 25 -25 75 -40 113 -16 37 -25 67 -22
67 3 0 0 6 -6 13 -6 8 -8 17 -4 20 3 4 1 7 -5 7 -7 0 -12 6 -12 13 0 24 -100
209 -144 265 -51 66 -93 106 -156 149 -47 32 -192 103 -210 103 -6 0 -18 4
-28 10 -14 8 -98 34 -147 46 -84 21 -189 40 -209 39 -14 0 -26 2 -26 5 0 3 -8
6 -17 7 -10 1 -45 4 -78 7 -33 3 -111 8 -174 11 -62 3 -117 7 -121 10 -4 2 -9
2 -12 0z"/>
</g>
</svg>
